M48
; DRILL file {KiCad (5.1.10)-1} date 12/08/21 21:24:49
; FORMAT={-:-/ absolute / inch / decimal}
; #@! TF.CreationDate,2021-12-08T21:24:49+07:00
; #@! TF.GenerationSoftware,Kicad,Pcbnew,(5.1.10)-1
; #@! TF.FileFunction,Plated,1,2,PTH
FMAT,2
INCH
T1C0.0157
T2C0.0197
%
G90
G05
T1
X3.6562Y-2.2188
X3.6562Y-2.2812
X3.6562Y-2.3438
X3.7188Y-2.2188
X3.7188Y-2.2812
X3.7188Y-2.3438
X3.7812Y-2.2188
X3.7812Y-2.2812
X3.7812Y-2.3438
T2
X3.4988Y-2.4387
X3.499Y-2.4072
X3.4993Y-2.3757
X3.4995Y-2.3442
X3.4998Y-2.3127
X3.5Y-2.2812
X3.5002Y-2.2498
X3.5005Y-2.2183
X3.5007Y-2.1868
X3.501Y-2.1553
X3.5012Y-2.1238
X3.5613Y-2.0637
X3.5613Y-2.5012
X3.5928Y-2.0635
X3.5928Y-2.501
X3.6243Y-2.0632
X3.6243Y-2.5007
X3.6558Y-2.063
X3.6558Y-2.5005
X3.6873Y-2.0627
X3.6873Y-2.5002
X3.7188Y-2.0625
X3.7188Y-2.5
X3.7502Y-2.0623
X3.7502Y-2.4998
X3.7817Y-2.062
X3.7817Y-2.4995
X3.8132Y-2.0618
X3.8132Y-2.4993
X3.8447Y-2.0615
X3.8447Y-2.499
X3.8762Y-2.0613
X3.8762Y-2.4988
X3.9363Y-2.4387
X3.9365Y-2.4072
X3.9368Y-2.3757
X3.937Y-2.3442
X3.9373Y-2.3127
X3.9375Y-2.2812
X3.9377Y-2.2498
X3.938Y-2.2183
X3.9382Y-2.1868
X3.9385Y-2.1553
X3.9387Y-2.1238
T0
M30
