G04 #@! TF.GenerationSoftware,KiCad,Pcbnew,(5.1.10)-1*
G04 #@! TF.CreationDate,2021-12-08T21:24:47+07:00*
G04 #@! TF.ProjectId,32u4mu to 32u4au,33327534-6d75-4207-946f-203332753461,rev?*
G04 #@! TF.SameCoordinates,Original*
G04 #@! TF.FileFunction,Paste,Bot*
G04 #@! TF.FilePolarity,Positive*
%FSLAX46Y46*%
G04 Gerber Fmt 4.6, Leading zero omitted, Abs format (unit mm)*
G04 Created by KiCad (PCBNEW (5.1.10)-1) date 2021-12-08 21:24:47*
%MOMM*%
%LPD*%
G01*
G04 APERTURE LIST*
%ADD10R,1.500000X0.550000*%
%ADD11R,0.550000X1.500000*%
G04 APERTURE END LIST*
D10*
X88756250Y-61943750D03*
X88756250Y-61143750D03*
X88756250Y-60343750D03*
X88756250Y-59543750D03*
X88756250Y-58743750D03*
X88756250Y-57943750D03*
X88756250Y-57143750D03*
X88756250Y-56343750D03*
X88756250Y-55543750D03*
X88756250Y-54743750D03*
X88756250Y-53943750D03*
D11*
X90456250Y-52243750D03*
X91256250Y-52243750D03*
X92056250Y-52243750D03*
X92856250Y-52243750D03*
X93656250Y-52243750D03*
X94456250Y-52243750D03*
X95256250Y-52243750D03*
X96056250Y-52243750D03*
X96856250Y-52243750D03*
X97656250Y-52243750D03*
X98456250Y-52243750D03*
D10*
X100156250Y-53943750D03*
X100156250Y-54743750D03*
X100156250Y-55543750D03*
X100156250Y-56343750D03*
X100156250Y-57143750D03*
X100156250Y-57943750D03*
X100156250Y-58743750D03*
X100156250Y-59543750D03*
X100156250Y-60343750D03*
X100156250Y-61143750D03*
X100156250Y-61943750D03*
D11*
X98456250Y-63643750D03*
X97656250Y-63643750D03*
X96856250Y-63643750D03*
X96056250Y-63643750D03*
X95256250Y-63643750D03*
X94456250Y-63643750D03*
X93656250Y-63643750D03*
X92856250Y-63643750D03*
X92056250Y-63643750D03*
X91256250Y-63643750D03*
X90456250Y-63643750D03*
M02*
