G04 #@! TF.GenerationSoftware,KiCad,Pcbnew,(5.1.10)-1*
G04 #@! TF.CreationDate,2021-12-08T21:24:47+07:00*
G04 #@! TF.ProjectId,32u4mu to 32u4au,33327534-6d75-4207-946f-203332753461,rev?*
G04 #@! TF.SameCoordinates,Original*
G04 #@! TF.FileFunction,Paste,Top*
G04 #@! TF.FilePolarity,Positive*
%FSLAX46Y46*%
G04 Gerber Fmt 4.6, Leading zero omitted, Abs format (unit mm)*
G04 Created by KiCad (PCBNEW (5.1.10)-1) date 2021-12-08 21:24:47*
%MOMM*%
%LPD*%
G01*
G04 APERTURE LIST*
%ADD10R,0.550000X1.500000*%
%ADD11R,1.500000X0.550000*%
G04 APERTURE END LIST*
G36*
G01*
X95881250Y-60168751D02*
X95881250Y-59618749D01*
G75*
G02*
X96131249Y-59368750I249999J0D01*
G01*
X96681251Y-59368750D01*
G75*
G02*
X96931250Y-59618749I0J-249999D01*
G01*
X96931250Y-60168751D01*
G75*
G02*
X96681251Y-60418750I-249999J0D01*
G01*
X96131249Y-60418750D01*
G75*
G02*
X95881250Y-60168751I0J249999D01*
G01*
G37*
G36*
G01*
X95881250Y-58868751D02*
X95881250Y-58318749D01*
G75*
G02*
X96131249Y-58068750I249999J0D01*
G01*
X96681251Y-58068750D01*
G75*
G02*
X96931250Y-58318749I0J-249999D01*
G01*
X96931250Y-58868751D01*
G75*
G02*
X96681251Y-59118750I-249999J0D01*
G01*
X96131249Y-59118750D01*
G75*
G02*
X95881250Y-58868751I0J249999D01*
G01*
G37*
G36*
G01*
X95881250Y-57568751D02*
X95881250Y-57018749D01*
G75*
G02*
X96131249Y-56768750I249999J0D01*
G01*
X96681251Y-56768750D01*
G75*
G02*
X96931250Y-57018749I0J-249999D01*
G01*
X96931250Y-57568751D01*
G75*
G02*
X96681251Y-57818750I-249999J0D01*
G01*
X96131249Y-57818750D01*
G75*
G02*
X95881250Y-57568751I0J249999D01*
G01*
G37*
G36*
G01*
X95881250Y-56268751D02*
X95881250Y-55718749D01*
G75*
G02*
X96131249Y-55468750I249999J0D01*
G01*
X96681251Y-55468750D01*
G75*
G02*
X96931250Y-55718749I0J-249999D01*
G01*
X96931250Y-56268751D01*
G75*
G02*
X96681251Y-56518750I-249999J0D01*
G01*
X96131249Y-56518750D01*
G75*
G02*
X95881250Y-56268751I0J249999D01*
G01*
G37*
G36*
G01*
X94581250Y-60168751D02*
X94581250Y-59618749D01*
G75*
G02*
X94831249Y-59368750I249999J0D01*
G01*
X95381251Y-59368750D01*
G75*
G02*
X95631250Y-59618749I0J-249999D01*
G01*
X95631250Y-60168751D01*
G75*
G02*
X95381251Y-60418750I-249999J0D01*
G01*
X94831249Y-60418750D01*
G75*
G02*
X94581250Y-60168751I0J249999D01*
G01*
G37*
G36*
G01*
X94581250Y-58868751D02*
X94581250Y-58318749D01*
G75*
G02*
X94831249Y-58068750I249999J0D01*
G01*
X95381251Y-58068750D01*
G75*
G02*
X95631250Y-58318749I0J-249999D01*
G01*
X95631250Y-58868751D01*
G75*
G02*
X95381251Y-59118750I-249999J0D01*
G01*
X94831249Y-59118750D01*
G75*
G02*
X94581250Y-58868751I0J249999D01*
G01*
G37*
G36*
G01*
X94581250Y-57568751D02*
X94581250Y-57018749D01*
G75*
G02*
X94831249Y-56768750I249999J0D01*
G01*
X95381251Y-56768750D01*
G75*
G02*
X95631250Y-57018749I0J-249999D01*
G01*
X95631250Y-57568751D01*
G75*
G02*
X95381251Y-57818750I-249999J0D01*
G01*
X94831249Y-57818750D01*
G75*
G02*
X94581250Y-57568751I0J249999D01*
G01*
G37*
G36*
G01*
X94581250Y-56268751D02*
X94581250Y-55718749D01*
G75*
G02*
X94831249Y-55468750I249999J0D01*
G01*
X95381251Y-55468750D01*
G75*
G02*
X95631250Y-55718749I0J-249999D01*
G01*
X95631250Y-56268751D01*
G75*
G02*
X95381251Y-56518750I-249999J0D01*
G01*
X94831249Y-56518750D01*
G75*
G02*
X94581250Y-56268751I0J249999D01*
G01*
G37*
G36*
G01*
X93281250Y-60168751D02*
X93281250Y-59618749D01*
G75*
G02*
X93531249Y-59368750I249999J0D01*
G01*
X94081251Y-59368750D01*
G75*
G02*
X94331250Y-59618749I0J-249999D01*
G01*
X94331250Y-60168751D01*
G75*
G02*
X94081251Y-60418750I-249999J0D01*
G01*
X93531249Y-60418750D01*
G75*
G02*
X93281250Y-60168751I0J249999D01*
G01*
G37*
G36*
G01*
X93281250Y-58868751D02*
X93281250Y-58318749D01*
G75*
G02*
X93531249Y-58068750I249999J0D01*
G01*
X94081251Y-58068750D01*
G75*
G02*
X94331250Y-58318749I0J-249999D01*
G01*
X94331250Y-58868751D01*
G75*
G02*
X94081251Y-59118750I-249999J0D01*
G01*
X93531249Y-59118750D01*
G75*
G02*
X93281250Y-58868751I0J249999D01*
G01*
G37*
G36*
G01*
X93281250Y-57568751D02*
X93281250Y-57018749D01*
G75*
G02*
X93531249Y-56768750I249999J0D01*
G01*
X94081251Y-56768750D01*
G75*
G02*
X94331250Y-57018749I0J-249999D01*
G01*
X94331250Y-57568751D01*
G75*
G02*
X94081251Y-57818750I-249999J0D01*
G01*
X93531249Y-57818750D01*
G75*
G02*
X93281250Y-57568751I0J249999D01*
G01*
G37*
G36*
G01*
X93281250Y-56268751D02*
X93281250Y-55718749D01*
G75*
G02*
X93531249Y-55468750I249999J0D01*
G01*
X94081251Y-55468750D01*
G75*
G02*
X94331250Y-55718749I0J-249999D01*
G01*
X94331250Y-56268751D01*
G75*
G02*
X94081251Y-56518750I-249999J0D01*
G01*
X93531249Y-56518750D01*
G75*
G02*
X93281250Y-56268751I0J249999D01*
G01*
G37*
G36*
G01*
X91981250Y-60168751D02*
X91981250Y-59618749D01*
G75*
G02*
X92231249Y-59368750I249999J0D01*
G01*
X92781251Y-59368750D01*
G75*
G02*
X93031250Y-59618749I0J-249999D01*
G01*
X93031250Y-60168751D01*
G75*
G02*
X92781251Y-60418750I-249999J0D01*
G01*
X92231249Y-60418750D01*
G75*
G02*
X91981250Y-60168751I0J249999D01*
G01*
G37*
G36*
G01*
X91981250Y-58868751D02*
X91981250Y-58318749D01*
G75*
G02*
X92231249Y-58068750I249999J0D01*
G01*
X92781251Y-58068750D01*
G75*
G02*
X93031250Y-58318749I0J-249999D01*
G01*
X93031250Y-58868751D01*
G75*
G02*
X92781251Y-59118750I-249999J0D01*
G01*
X92231249Y-59118750D01*
G75*
G02*
X91981250Y-58868751I0J249999D01*
G01*
G37*
G36*
G01*
X91981250Y-57568751D02*
X91981250Y-57018749D01*
G75*
G02*
X92231249Y-56768750I249999J0D01*
G01*
X92781251Y-56768750D01*
G75*
G02*
X93031250Y-57018749I0J-249999D01*
G01*
X93031250Y-57568751D01*
G75*
G02*
X92781251Y-57818750I-249999J0D01*
G01*
X92231249Y-57818750D01*
G75*
G02*
X91981250Y-57568751I0J249999D01*
G01*
G37*
G36*
G01*
X91981250Y-56268751D02*
X91981250Y-55718749D01*
G75*
G02*
X92231249Y-55468750I249999J0D01*
G01*
X92781251Y-55468750D01*
G75*
G02*
X93031250Y-55718749I0J-249999D01*
G01*
X93031250Y-56268751D01*
G75*
G02*
X92781251Y-56518750I-249999J0D01*
G01*
X92231249Y-56518750D01*
G75*
G02*
X91981250Y-56268751I0J249999D01*
G01*
G37*
G36*
G01*
X91831250Y-55081250D02*
X91831250Y-54131250D01*
G75*
G02*
X91893750Y-54068750I62500J0D01*
G01*
X92018750Y-54068750D01*
G75*
G02*
X92081250Y-54131250I0J-62500D01*
G01*
X92081250Y-55081250D01*
G75*
G02*
X92018750Y-55143750I-62500J0D01*
G01*
X91893750Y-55143750D01*
G75*
G02*
X91831250Y-55081250I0J62500D01*
G01*
G37*
G36*
G01*
X92331250Y-55081250D02*
X92331250Y-54131250D01*
G75*
G02*
X92393750Y-54068750I62500J0D01*
G01*
X92518750Y-54068750D01*
G75*
G02*
X92581250Y-54131250I0J-62500D01*
G01*
X92581250Y-55081250D01*
G75*
G02*
X92518750Y-55143750I-62500J0D01*
G01*
X92393750Y-55143750D01*
G75*
G02*
X92331250Y-55081250I0J62500D01*
G01*
G37*
G36*
G01*
X92831250Y-55081250D02*
X92831250Y-54131250D01*
G75*
G02*
X92893750Y-54068750I62500J0D01*
G01*
X93018750Y-54068750D01*
G75*
G02*
X93081250Y-54131250I0J-62500D01*
G01*
X93081250Y-55081250D01*
G75*
G02*
X93018750Y-55143750I-62500J0D01*
G01*
X92893750Y-55143750D01*
G75*
G02*
X92831250Y-55081250I0J62500D01*
G01*
G37*
G36*
G01*
X93331250Y-55081250D02*
X93331250Y-54131250D01*
G75*
G02*
X93393750Y-54068750I62500J0D01*
G01*
X93518750Y-54068750D01*
G75*
G02*
X93581250Y-54131250I0J-62500D01*
G01*
X93581250Y-55081250D01*
G75*
G02*
X93518750Y-55143750I-62500J0D01*
G01*
X93393750Y-55143750D01*
G75*
G02*
X93331250Y-55081250I0J62500D01*
G01*
G37*
G36*
G01*
X93831250Y-55081250D02*
X93831250Y-54131250D01*
G75*
G02*
X93893750Y-54068750I62500J0D01*
G01*
X94018750Y-54068750D01*
G75*
G02*
X94081250Y-54131250I0J-62500D01*
G01*
X94081250Y-55081250D01*
G75*
G02*
X94018750Y-55143750I-62500J0D01*
G01*
X93893750Y-55143750D01*
G75*
G02*
X93831250Y-55081250I0J62500D01*
G01*
G37*
G36*
G01*
X94331250Y-55081250D02*
X94331250Y-54131250D01*
G75*
G02*
X94393750Y-54068750I62500J0D01*
G01*
X94518750Y-54068750D01*
G75*
G02*
X94581250Y-54131250I0J-62500D01*
G01*
X94581250Y-55081250D01*
G75*
G02*
X94518750Y-55143750I-62500J0D01*
G01*
X94393750Y-55143750D01*
G75*
G02*
X94331250Y-55081250I0J62500D01*
G01*
G37*
G36*
G01*
X94831250Y-55081250D02*
X94831250Y-54131250D01*
G75*
G02*
X94893750Y-54068750I62500J0D01*
G01*
X95018750Y-54068750D01*
G75*
G02*
X95081250Y-54131250I0J-62500D01*
G01*
X95081250Y-55081250D01*
G75*
G02*
X95018750Y-55143750I-62500J0D01*
G01*
X94893750Y-55143750D01*
G75*
G02*
X94831250Y-55081250I0J62500D01*
G01*
G37*
G36*
G01*
X95331250Y-55081250D02*
X95331250Y-54131250D01*
G75*
G02*
X95393750Y-54068750I62500J0D01*
G01*
X95518750Y-54068750D01*
G75*
G02*
X95581250Y-54131250I0J-62500D01*
G01*
X95581250Y-55081250D01*
G75*
G02*
X95518750Y-55143750I-62500J0D01*
G01*
X95393750Y-55143750D01*
G75*
G02*
X95331250Y-55081250I0J62500D01*
G01*
G37*
G36*
G01*
X95831250Y-55081250D02*
X95831250Y-54131250D01*
G75*
G02*
X95893750Y-54068750I62500J0D01*
G01*
X96018750Y-54068750D01*
G75*
G02*
X96081250Y-54131250I0J-62500D01*
G01*
X96081250Y-55081250D01*
G75*
G02*
X96018750Y-55143750I-62500J0D01*
G01*
X95893750Y-55143750D01*
G75*
G02*
X95831250Y-55081250I0J62500D01*
G01*
G37*
G36*
G01*
X96331250Y-55081250D02*
X96331250Y-54131250D01*
G75*
G02*
X96393750Y-54068750I62500J0D01*
G01*
X96518750Y-54068750D01*
G75*
G02*
X96581250Y-54131250I0J-62500D01*
G01*
X96581250Y-55081250D01*
G75*
G02*
X96518750Y-55143750I-62500J0D01*
G01*
X96393750Y-55143750D01*
G75*
G02*
X96331250Y-55081250I0J62500D01*
G01*
G37*
G36*
G01*
X96831250Y-55081250D02*
X96831250Y-54131250D01*
G75*
G02*
X96893750Y-54068750I62500J0D01*
G01*
X97018750Y-54068750D01*
G75*
G02*
X97081250Y-54131250I0J-62500D01*
G01*
X97081250Y-55081250D01*
G75*
G02*
X97018750Y-55143750I-62500J0D01*
G01*
X96893750Y-55143750D01*
G75*
G02*
X96831250Y-55081250I0J62500D01*
G01*
G37*
G36*
G01*
X97256250Y-55506250D02*
X97256250Y-55381250D01*
G75*
G02*
X97318750Y-55318750I62500J0D01*
G01*
X98268750Y-55318750D01*
G75*
G02*
X98331250Y-55381250I0J-62500D01*
G01*
X98331250Y-55506250D01*
G75*
G02*
X98268750Y-55568750I-62500J0D01*
G01*
X97318750Y-55568750D01*
G75*
G02*
X97256250Y-55506250I0J62500D01*
G01*
G37*
G36*
G01*
X97256250Y-56006250D02*
X97256250Y-55881250D01*
G75*
G02*
X97318750Y-55818750I62500J0D01*
G01*
X98268750Y-55818750D01*
G75*
G02*
X98331250Y-55881250I0J-62500D01*
G01*
X98331250Y-56006250D01*
G75*
G02*
X98268750Y-56068750I-62500J0D01*
G01*
X97318750Y-56068750D01*
G75*
G02*
X97256250Y-56006250I0J62500D01*
G01*
G37*
G36*
G01*
X97256250Y-56506250D02*
X97256250Y-56381250D01*
G75*
G02*
X97318750Y-56318750I62500J0D01*
G01*
X98268750Y-56318750D01*
G75*
G02*
X98331250Y-56381250I0J-62500D01*
G01*
X98331250Y-56506250D01*
G75*
G02*
X98268750Y-56568750I-62500J0D01*
G01*
X97318750Y-56568750D01*
G75*
G02*
X97256250Y-56506250I0J62500D01*
G01*
G37*
G36*
G01*
X97256250Y-57006250D02*
X97256250Y-56881250D01*
G75*
G02*
X97318750Y-56818750I62500J0D01*
G01*
X98268750Y-56818750D01*
G75*
G02*
X98331250Y-56881250I0J-62500D01*
G01*
X98331250Y-57006250D01*
G75*
G02*
X98268750Y-57068750I-62500J0D01*
G01*
X97318750Y-57068750D01*
G75*
G02*
X97256250Y-57006250I0J62500D01*
G01*
G37*
G36*
G01*
X97256250Y-57506250D02*
X97256250Y-57381250D01*
G75*
G02*
X97318750Y-57318750I62500J0D01*
G01*
X98268750Y-57318750D01*
G75*
G02*
X98331250Y-57381250I0J-62500D01*
G01*
X98331250Y-57506250D01*
G75*
G02*
X98268750Y-57568750I-62500J0D01*
G01*
X97318750Y-57568750D01*
G75*
G02*
X97256250Y-57506250I0J62500D01*
G01*
G37*
G36*
G01*
X97256250Y-58006250D02*
X97256250Y-57881250D01*
G75*
G02*
X97318750Y-57818750I62500J0D01*
G01*
X98268750Y-57818750D01*
G75*
G02*
X98331250Y-57881250I0J-62500D01*
G01*
X98331250Y-58006250D01*
G75*
G02*
X98268750Y-58068750I-62500J0D01*
G01*
X97318750Y-58068750D01*
G75*
G02*
X97256250Y-58006250I0J62500D01*
G01*
G37*
G36*
G01*
X97256250Y-58506250D02*
X97256250Y-58381250D01*
G75*
G02*
X97318750Y-58318750I62500J0D01*
G01*
X98268750Y-58318750D01*
G75*
G02*
X98331250Y-58381250I0J-62500D01*
G01*
X98331250Y-58506250D01*
G75*
G02*
X98268750Y-58568750I-62500J0D01*
G01*
X97318750Y-58568750D01*
G75*
G02*
X97256250Y-58506250I0J62500D01*
G01*
G37*
G36*
G01*
X97256250Y-59006250D02*
X97256250Y-58881250D01*
G75*
G02*
X97318750Y-58818750I62500J0D01*
G01*
X98268750Y-58818750D01*
G75*
G02*
X98331250Y-58881250I0J-62500D01*
G01*
X98331250Y-59006250D01*
G75*
G02*
X98268750Y-59068750I-62500J0D01*
G01*
X97318750Y-59068750D01*
G75*
G02*
X97256250Y-59006250I0J62500D01*
G01*
G37*
G36*
G01*
X97256250Y-59506250D02*
X97256250Y-59381250D01*
G75*
G02*
X97318750Y-59318750I62500J0D01*
G01*
X98268750Y-59318750D01*
G75*
G02*
X98331250Y-59381250I0J-62500D01*
G01*
X98331250Y-59506250D01*
G75*
G02*
X98268750Y-59568750I-62500J0D01*
G01*
X97318750Y-59568750D01*
G75*
G02*
X97256250Y-59506250I0J62500D01*
G01*
G37*
G36*
G01*
X97256250Y-60006250D02*
X97256250Y-59881250D01*
G75*
G02*
X97318750Y-59818750I62500J0D01*
G01*
X98268750Y-59818750D01*
G75*
G02*
X98331250Y-59881250I0J-62500D01*
G01*
X98331250Y-60006250D01*
G75*
G02*
X98268750Y-60068750I-62500J0D01*
G01*
X97318750Y-60068750D01*
G75*
G02*
X97256250Y-60006250I0J62500D01*
G01*
G37*
G36*
G01*
X97256250Y-60506250D02*
X97256250Y-60381250D01*
G75*
G02*
X97318750Y-60318750I62500J0D01*
G01*
X98268750Y-60318750D01*
G75*
G02*
X98331250Y-60381250I0J-62500D01*
G01*
X98331250Y-60506250D01*
G75*
G02*
X98268750Y-60568750I-62500J0D01*
G01*
X97318750Y-60568750D01*
G75*
G02*
X97256250Y-60506250I0J62500D01*
G01*
G37*
G36*
G01*
X96831250Y-61756250D02*
X96831250Y-60806250D01*
G75*
G02*
X96893750Y-60743750I62500J0D01*
G01*
X97018750Y-60743750D01*
G75*
G02*
X97081250Y-60806250I0J-62500D01*
G01*
X97081250Y-61756250D01*
G75*
G02*
X97018750Y-61818750I-62500J0D01*
G01*
X96893750Y-61818750D01*
G75*
G02*
X96831250Y-61756250I0J62500D01*
G01*
G37*
G36*
G01*
X96331250Y-61756250D02*
X96331250Y-60806250D01*
G75*
G02*
X96393750Y-60743750I62500J0D01*
G01*
X96518750Y-60743750D01*
G75*
G02*
X96581250Y-60806250I0J-62500D01*
G01*
X96581250Y-61756250D01*
G75*
G02*
X96518750Y-61818750I-62500J0D01*
G01*
X96393750Y-61818750D01*
G75*
G02*
X96331250Y-61756250I0J62500D01*
G01*
G37*
G36*
G01*
X95831250Y-61756250D02*
X95831250Y-60806250D01*
G75*
G02*
X95893750Y-60743750I62500J0D01*
G01*
X96018750Y-60743750D01*
G75*
G02*
X96081250Y-60806250I0J-62500D01*
G01*
X96081250Y-61756250D01*
G75*
G02*
X96018750Y-61818750I-62500J0D01*
G01*
X95893750Y-61818750D01*
G75*
G02*
X95831250Y-61756250I0J62500D01*
G01*
G37*
G36*
G01*
X95331250Y-61756250D02*
X95331250Y-60806250D01*
G75*
G02*
X95393750Y-60743750I62500J0D01*
G01*
X95518750Y-60743750D01*
G75*
G02*
X95581250Y-60806250I0J-62500D01*
G01*
X95581250Y-61756250D01*
G75*
G02*
X95518750Y-61818750I-62500J0D01*
G01*
X95393750Y-61818750D01*
G75*
G02*
X95331250Y-61756250I0J62500D01*
G01*
G37*
G36*
G01*
X94831250Y-61756250D02*
X94831250Y-60806250D01*
G75*
G02*
X94893750Y-60743750I62500J0D01*
G01*
X95018750Y-60743750D01*
G75*
G02*
X95081250Y-60806250I0J-62500D01*
G01*
X95081250Y-61756250D01*
G75*
G02*
X95018750Y-61818750I-62500J0D01*
G01*
X94893750Y-61818750D01*
G75*
G02*
X94831250Y-61756250I0J62500D01*
G01*
G37*
G36*
G01*
X94331250Y-61756250D02*
X94331250Y-60806250D01*
G75*
G02*
X94393750Y-60743750I62500J0D01*
G01*
X94518750Y-60743750D01*
G75*
G02*
X94581250Y-60806250I0J-62500D01*
G01*
X94581250Y-61756250D01*
G75*
G02*
X94518750Y-61818750I-62500J0D01*
G01*
X94393750Y-61818750D01*
G75*
G02*
X94331250Y-61756250I0J62500D01*
G01*
G37*
G36*
G01*
X93831250Y-61756250D02*
X93831250Y-60806250D01*
G75*
G02*
X93893750Y-60743750I62500J0D01*
G01*
X94018750Y-60743750D01*
G75*
G02*
X94081250Y-60806250I0J-62500D01*
G01*
X94081250Y-61756250D01*
G75*
G02*
X94018750Y-61818750I-62500J0D01*
G01*
X93893750Y-61818750D01*
G75*
G02*
X93831250Y-61756250I0J62500D01*
G01*
G37*
G36*
G01*
X93331250Y-61756250D02*
X93331250Y-60806250D01*
G75*
G02*
X93393750Y-60743750I62500J0D01*
G01*
X93518750Y-60743750D01*
G75*
G02*
X93581250Y-60806250I0J-62500D01*
G01*
X93581250Y-61756250D01*
G75*
G02*
X93518750Y-61818750I-62500J0D01*
G01*
X93393750Y-61818750D01*
G75*
G02*
X93331250Y-61756250I0J62500D01*
G01*
G37*
G36*
G01*
X92831250Y-61756250D02*
X92831250Y-60806250D01*
G75*
G02*
X92893750Y-60743750I62500J0D01*
G01*
X93018750Y-60743750D01*
G75*
G02*
X93081250Y-60806250I0J-62500D01*
G01*
X93081250Y-61756250D01*
G75*
G02*
X93018750Y-61818750I-62500J0D01*
G01*
X92893750Y-61818750D01*
G75*
G02*
X92831250Y-61756250I0J62500D01*
G01*
G37*
G36*
G01*
X92331250Y-61756250D02*
X92331250Y-60806250D01*
G75*
G02*
X92393750Y-60743750I62500J0D01*
G01*
X92518750Y-60743750D01*
G75*
G02*
X92581250Y-60806250I0J-62500D01*
G01*
X92581250Y-61756250D01*
G75*
G02*
X92518750Y-61818750I-62500J0D01*
G01*
X92393750Y-61818750D01*
G75*
G02*
X92331250Y-61756250I0J62500D01*
G01*
G37*
G36*
G01*
X91831250Y-61756250D02*
X91831250Y-60806250D01*
G75*
G02*
X91893750Y-60743750I62500J0D01*
G01*
X92018750Y-60743750D01*
G75*
G02*
X92081250Y-60806250I0J-62500D01*
G01*
X92081250Y-61756250D01*
G75*
G02*
X92018750Y-61818750I-62500J0D01*
G01*
X91893750Y-61818750D01*
G75*
G02*
X91831250Y-61756250I0J62500D01*
G01*
G37*
G36*
G01*
X90581250Y-60506250D02*
X90581250Y-60381250D01*
G75*
G02*
X90643750Y-60318750I62500J0D01*
G01*
X91593750Y-60318750D01*
G75*
G02*
X91656250Y-60381250I0J-62500D01*
G01*
X91656250Y-60506250D01*
G75*
G02*
X91593750Y-60568750I-62500J0D01*
G01*
X90643750Y-60568750D01*
G75*
G02*
X90581250Y-60506250I0J62500D01*
G01*
G37*
G36*
G01*
X90581250Y-60006250D02*
X90581250Y-59881250D01*
G75*
G02*
X90643750Y-59818750I62500J0D01*
G01*
X91593750Y-59818750D01*
G75*
G02*
X91656250Y-59881250I0J-62500D01*
G01*
X91656250Y-60006250D01*
G75*
G02*
X91593750Y-60068750I-62500J0D01*
G01*
X90643750Y-60068750D01*
G75*
G02*
X90581250Y-60006250I0J62500D01*
G01*
G37*
G36*
G01*
X90581250Y-59506250D02*
X90581250Y-59381250D01*
G75*
G02*
X90643750Y-59318750I62500J0D01*
G01*
X91593750Y-59318750D01*
G75*
G02*
X91656250Y-59381250I0J-62500D01*
G01*
X91656250Y-59506250D01*
G75*
G02*
X91593750Y-59568750I-62500J0D01*
G01*
X90643750Y-59568750D01*
G75*
G02*
X90581250Y-59506250I0J62500D01*
G01*
G37*
G36*
G01*
X90581250Y-59006250D02*
X90581250Y-58881250D01*
G75*
G02*
X90643750Y-58818750I62500J0D01*
G01*
X91593750Y-58818750D01*
G75*
G02*
X91656250Y-58881250I0J-62500D01*
G01*
X91656250Y-59006250D01*
G75*
G02*
X91593750Y-59068750I-62500J0D01*
G01*
X90643750Y-59068750D01*
G75*
G02*
X90581250Y-59006250I0J62500D01*
G01*
G37*
G36*
G01*
X90581250Y-58506250D02*
X90581250Y-58381250D01*
G75*
G02*
X90643750Y-58318750I62500J0D01*
G01*
X91593750Y-58318750D01*
G75*
G02*
X91656250Y-58381250I0J-62500D01*
G01*
X91656250Y-58506250D01*
G75*
G02*
X91593750Y-58568750I-62500J0D01*
G01*
X90643750Y-58568750D01*
G75*
G02*
X90581250Y-58506250I0J62500D01*
G01*
G37*
G36*
G01*
X90581250Y-58006250D02*
X90581250Y-57881250D01*
G75*
G02*
X90643750Y-57818750I62500J0D01*
G01*
X91593750Y-57818750D01*
G75*
G02*
X91656250Y-57881250I0J-62500D01*
G01*
X91656250Y-58006250D01*
G75*
G02*
X91593750Y-58068750I-62500J0D01*
G01*
X90643750Y-58068750D01*
G75*
G02*
X90581250Y-58006250I0J62500D01*
G01*
G37*
G36*
G01*
X90581250Y-57506250D02*
X90581250Y-57381250D01*
G75*
G02*
X90643750Y-57318750I62500J0D01*
G01*
X91593750Y-57318750D01*
G75*
G02*
X91656250Y-57381250I0J-62500D01*
G01*
X91656250Y-57506250D01*
G75*
G02*
X91593750Y-57568750I-62500J0D01*
G01*
X90643750Y-57568750D01*
G75*
G02*
X90581250Y-57506250I0J62500D01*
G01*
G37*
G36*
G01*
X90581250Y-57006250D02*
X90581250Y-56881250D01*
G75*
G02*
X90643750Y-56818750I62500J0D01*
G01*
X91593750Y-56818750D01*
G75*
G02*
X91656250Y-56881250I0J-62500D01*
G01*
X91656250Y-57006250D01*
G75*
G02*
X91593750Y-57068750I-62500J0D01*
G01*
X90643750Y-57068750D01*
G75*
G02*
X90581250Y-57006250I0J62500D01*
G01*
G37*
G36*
G01*
X90581250Y-56506250D02*
X90581250Y-56381250D01*
G75*
G02*
X90643750Y-56318750I62500J0D01*
G01*
X91593750Y-56318750D01*
G75*
G02*
X91656250Y-56381250I0J-62500D01*
G01*
X91656250Y-56506250D01*
G75*
G02*
X91593750Y-56568750I-62500J0D01*
G01*
X90643750Y-56568750D01*
G75*
G02*
X90581250Y-56506250I0J62500D01*
G01*
G37*
G36*
G01*
X90581250Y-56006250D02*
X90581250Y-55881250D01*
G75*
G02*
X90643750Y-55818750I62500J0D01*
G01*
X91593750Y-55818750D01*
G75*
G02*
X91656250Y-55881250I0J-62500D01*
G01*
X91656250Y-56006250D01*
G75*
G02*
X91593750Y-56068750I-62500J0D01*
G01*
X90643750Y-56068750D01*
G75*
G02*
X90581250Y-56006250I0J62500D01*
G01*
G37*
G36*
G01*
X90581250Y-55506250D02*
X90581250Y-55381250D01*
G75*
G02*
X90643750Y-55318750I62500J0D01*
G01*
X91593750Y-55318750D01*
G75*
G02*
X91656250Y-55381250I0J-62500D01*
G01*
X91656250Y-55506250D01*
G75*
G02*
X91593750Y-55568750I-62500J0D01*
G01*
X90643750Y-55568750D01*
G75*
G02*
X90581250Y-55506250I0J62500D01*
G01*
G37*
D10*
X90456250Y-52243750D03*
X91256250Y-52243750D03*
X92056250Y-52243750D03*
X92856250Y-52243750D03*
X93656250Y-52243750D03*
X94456250Y-52243750D03*
X95256250Y-52243750D03*
X96056250Y-52243750D03*
X96856250Y-52243750D03*
X97656250Y-52243750D03*
X98456250Y-52243750D03*
D11*
X100156250Y-53943750D03*
X100156250Y-54743750D03*
X100156250Y-55543750D03*
X100156250Y-56343750D03*
X100156250Y-57143750D03*
X100156250Y-57943750D03*
X100156250Y-58743750D03*
X100156250Y-59543750D03*
X100156250Y-60343750D03*
X100156250Y-61143750D03*
X100156250Y-61943750D03*
D10*
X98456250Y-63643750D03*
X97656250Y-63643750D03*
X96856250Y-63643750D03*
X96056250Y-63643750D03*
X95256250Y-63643750D03*
X94456250Y-63643750D03*
X93656250Y-63643750D03*
X92856250Y-63643750D03*
X92056250Y-63643750D03*
X91256250Y-63643750D03*
X90456250Y-63643750D03*
D11*
X88756250Y-61943750D03*
X88756250Y-61143750D03*
X88756250Y-60343750D03*
X88756250Y-59543750D03*
X88756250Y-58743750D03*
X88756250Y-57943750D03*
X88756250Y-57143750D03*
X88756250Y-56343750D03*
X88756250Y-55543750D03*
X88756250Y-54743750D03*
X88756250Y-53943750D03*
M02*
