G04 #@! TF.GenerationSoftware,KiCad,Pcbnew,(5.1.10)-1*
G04 #@! TF.CreationDate,2021-12-08T21:24:47+07:00*
G04 #@! TF.ProjectId,32u4mu to 32u4au,33327534-6d75-4207-946f-203332753461,rev?*
G04 #@! TF.SameCoordinates,Original*
G04 #@! TF.FileFunction,Copper,L1,Top*
G04 #@! TF.FilePolarity,Positive*
%FSLAX46Y46*%
G04 Gerber Fmt 4.6, Leading zero omitted, Abs format (unit mm)*
G04 Created by KiCad (PCBNEW (5.1.10)-1) date 2021-12-08 21:24:47*
%MOMM*%
%LPD*%
G01*
G04 APERTURE LIST*
G04 #@! TA.AperFunction,SMDPad,CuDef*
%ADD10R,5.200000X5.200000*%
G04 #@! TD*
G04 #@! TA.AperFunction,SMDPad,CuDef*
%ADD11R,0.550000X1.500000*%
G04 #@! TD*
G04 #@! TA.AperFunction,SMDPad,CuDef*
%ADD12R,1.500000X0.550000*%
G04 #@! TD*
G04 #@! TA.AperFunction,ViaPad*
%ADD13C,0.600000*%
G04 #@! TD*
G04 #@! TA.AperFunction,ViaPad*
%ADD14C,0.800000*%
G04 #@! TD*
G04 #@! TA.AperFunction,Conductor*
%ADD15C,0.250000*%
G04 #@! TD*
G04 APERTURE END LIST*
D10*
X94456250Y-57943750D03*
G04 #@! TA.AperFunction,SMDPad,CuDef*
G36*
G01*
X91831250Y-55081250D02*
X91831250Y-54131250D01*
G75*
G02*
X91893750Y-54068750I62500J0D01*
G01*
X92018750Y-54068750D01*
G75*
G02*
X92081250Y-54131250I0J-62500D01*
G01*
X92081250Y-55081250D01*
G75*
G02*
X92018750Y-55143750I-62500J0D01*
G01*
X91893750Y-55143750D01*
G75*
G02*
X91831250Y-55081250I0J62500D01*
G01*
G37*
G04 #@! TD.AperFunction*
G04 #@! TA.AperFunction,SMDPad,CuDef*
G36*
G01*
X92331250Y-55081250D02*
X92331250Y-54131250D01*
G75*
G02*
X92393750Y-54068750I62500J0D01*
G01*
X92518750Y-54068750D01*
G75*
G02*
X92581250Y-54131250I0J-62500D01*
G01*
X92581250Y-55081250D01*
G75*
G02*
X92518750Y-55143750I-62500J0D01*
G01*
X92393750Y-55143750D01*
G75*
G02*
X92331250Y-55081250I0J62500D01*
G01*
G37*
G04 #@! TD.AperFunction*
G04 #@! TA.AperFunction,SMDPad,CuDef*
G36*
G01*
X92831250Y-55081250D02*
X92831250Y-54131250D01*
G75*
G02*
X92893750Y-54068750I62500J0D01*
G01*
X93018750Y-54068750D01*
G75*
G02*
X93081250Y-54131250I0J-62500D01*
G01*
X93081250Y-55081250D01*
G75*
G02*
X93018750Y-55143750I-62500J0D01*
G01*
X92893750Y-55143750D01*
G75*
G02*
X92831250Y-55081250I0J62500D01*
G01*
G37*
G04 #@! TD.AperFunction*
G04 #@! TA.AperFunction,SMDPad,CuDef*
G36*
G01*
X93331250Y-55081250D02*
X93331250Y-54131250D01*
G75*
G02*
X93393750Y-54068750I62500J0D01*
G01*
X93518750Y-54068750D01*
G75*
G02*
X93581250Y-54131250I0J-62500D01*
G01*
X93581250Y-55081250D01*
G75*
G02*
X93518750Y-55143750I-62500J0D01*
G01*
X93393750Y-55143750D01*
G75*
G02*
X93331250Y-55081250I0J62500D01*
G01*
G37*
G04 #@! TD.AperFunction*
G04 #@! TA.AperFunction,SMDPad,CuDef*
G36*
G01*
X93831250Y-55081250D02*
X93831250Y-54131250D01*
G75*
G02*
X93893750Y-54068750I62500J0D01*
G01*
X94018750Y-54068750D01*
G75*
G02*
X94081250Y-54131250I0J-62500D01*
G01*
X94081250Y-55081250D01*
G75*
G02*
X94018750Y-55143750I-62500J0D01*
G01*
X93893750Y-55143750D01*
G75*
G02*
X93831250Y-55081250I0J62500D01*
G01*
G37*
G04 #@! TD.AperFunction*
G04 #@! TA.AperFunction,SMDPad,CuDef*
G36*
G01*
X94331250Y-55081250D02*
X94331250Y-54131250D01*
G75*
G02*
X94393750Y-54068750I62500J0D01*
G01*
X94518750Y-54068750D01*
G75*
G02*
X94581250Y-54131250I0J-62500D01*
G01*
X94581250Y-55081250D01*
G75*
G02*
X94518750Y-55143750I-62500J0D01*
G01*
X94393750Y-55143750D01*
G75*
G02*
X94331250Y-55081250I0J62500D01*
G01*
G37*
G04 #@! TD.AperFunction*
G04 #@! TA.AperFunction,SMDPad,CuDef*
G36*
G01*
X94831250Y-55081250D02*
X94831250Y-54131250D01*
G75*
G02*
X94893750Y-54068750I62500J0D01*
G01*
X95018750Y-54068750D01*
G75*
G02*
X95081250Y-54131250I0J-62500D01*
G01*
X95081250Y-55081250D01*
G75*
G02*
X95018750Y-55143750I-62500J0D01*
G01*
X94893750Y-55143750D01*
G75*
G02*
X94831250Y-55081250I0J62500D01*
G01*
G37*
G04 #@! TD.AperFunction*
G04 #@! TA.AperFunction,SMDPad,CuDef*
G36*
G01*
X95331250Y-55081250D02*
X95331250Y-54131250D01*
G75*
G02*
X95393750Y-54068750I62500J0D01*
G01*
X95518750Y-54068750D01*
G75*
G02*
X95581250Y-54131250I0J-62500D01*
G01*
X95581250Y-55081250D01*
G75*
G02*
X95518750Y-55143750I-62500J0D01*
G01*
X95393750Y-55143750D01*
G75*
G02*
X95331250Y-55081250I0J62500D01*
G01*
G37*
G04 #@! TD.AperFunction*
G04 #@! TA.AperFunction,SMDPad,CuDef*
G36*
G01*
X95831250Y-55081250D02*
X95831250Y-54131250D01*
G75*
G02*
X95893750Y-54068750I62500J0D01*
G01*
X96018750Y-54068750D01*
G75*
G02*
X96081250Y-54131250I0J-62500D01*
G01*
X96081250Y-55081250D01*
G75*
G02*
X96018750Y-55143750I-62500J0D01*
G01*
X95893750Y-55143750D01*
G75*
G02*
X95831250Y-55081250I0J62500D01*
G01*
G37*
G04 #@! TD.AperFunction*
G04 #@! TA.AperFunction,SMDPad,CuDef*
G36*
G01*
X96331250Y-55081250D02*
X96331250Y-54131250D01*
G75*
G02*
X96393750Y-54068750I62500J0D01*
G01*
X96518750Y-54068750D01*
G75*
G02*
X96581250Y-54131250I0J-62500D01*
G01*
X96581250Y-55081250D01*
G75*
G02*
X96518750Y-55143750I-62500J0D01*
G01*
X96393750Y-55143750D01*
G75*
G02*
X96331250Y-55081250I0J62500D01*
G01*
G37*
G04 #@! TD.AperFunction*
G04 #@! TA.AperFunction,SMDPad,CuDef*
G36*
G01*
X96831250Y-55081250D02*
X96831250Y-54131250D01*
G75*
G02*
X96893750Y-54068750I62500J0D01*
G01*
X97018750Y-54068750D01*
G75*
G02*
X97081250Y-54131250I0J-62500D01*
G01*
X97081250Y-55081250D01*
G75*
G02*
X97018750Y-55143750I-62500J0D01*
G01*
X96893750Y-55143750D01*
G75*
G02*
X96831250Y-55081250I0J62500D01*
G01*
G37*
G04 #@! TD.AperFunction*
G04 #@! TA.AperFunction,SMDPad,CuDef*
G36*
G01*
X97256250Y-55506250D02*
X97256250Y-55381250D01*
G75*
G02*
X97318750Y-55318750I62500J0D01*
G01*
X98268750Y-55318750D01*
G75*
G02*
X98331250Y-55381250I0J-62500D01*
G01*
X98331250Y-55506250D01*
G75*
G02*
X98268750Y-55568750I-62500J0D01*
G01*
X97318750Y-55568750D01*
G75*
G02*
X97256250Y-55506250I0J62500D01*
G01*
G37*
G04 #@! TD.AperFunction*
G04 #@! TA.AperFunction,SMDPad,CuDef*
G36*
G01*
X97256250Y-56006250D02*
X97256250Y-55881250D01*
G75*
G02*
X97318750Y-55818750I62500J0D01*
G01*
X98268750Y-55818750D01*
G75*
G02*
X98331250Y-55881250I0J-62500D01*
G01*
X98331250Y-56006250D01*
G75*
G02*
X98268750Y-56068750I-62500J0D01*
G01*
X97318750Y-56068750D01*
G75*
G02*
X97256250Y-56006250I0J62500D01*
G01*
G37*
G04 #@! TD.AperFunction*
G04 #@! TA.AperFunction,SMDPad,CuDef*
G36*
G01*
X97256250Y-56506250D02*
X97256250Y-56381250D01*
G75*
G02*
X97318750Y-56318750I62500J0D01*
G01*
X98268750Y-56318750D01*
G75*
G02*
X98331250Y-56381250I0J-62500D01*
G01*
X98331250Y-56506250D01*
G75*
G02*
X98268750Y-56568750I-62500J0D01*
G01*
X97318750Y-56568750D01*
G75*
G02*
X97256250Y-56506250I0J62500D01*
G01*
G37*
G04 #@! TD.AperFunction*
G04 #@! TA.AperFunction,SMDPad,CuDef*
G36*
G01*
X97256250Y-57006250D02*
X97256250Y-56881250D01*
G75*
G02*
X97318750Y-56818750I62500J0D01*
G01*
X98268750Y-56818750D01*
G75*
G02*
X98331250Y-56881250I0J-62500D01*
G01*
X98331250Y-57006250D01*
G75*
G02*
X98268750Y-57068750I-62500J0D01*
G01*
X97318750Y-57068750D01*
G75*
G02*
X97256250Y-57006250I0J62500D01*
G01*
G37*
G04 #@! TD.AperFunction*
G04 #@! TA.AperFunction,SMDPad,CuDef*
G36*
G01*
X97256250Y-57506250D02*
X97256250Y-57381250D01*
G75*
G02*
X97318750Y-57318750I62500J0D01*
G01*
X98268750Y-57318750D01*
G75*
G02*
X98331250Y-57381250I0J-62500D01*
G01*
X98331250Y-57506250D01*
G75*
G02*
X98268750Y-57568750I-62500J0D01*
G01*
X97318750Y-57568750D01*
G75*
G02*
X97256250Y-57506250I0J62500D01*
G01*
G37*
G04 #@! TD.AperFunction*
G04 #@! TA.AperFunction,SMDPad,CuDef*
G36*
G01*
X97256250Y-58006250D02*
X97256250Y-57881250D01*
G75*
G02*
X97318750Y-57818750I62500J0D01*
G01*
X98268750Y-57818750D01*
G75*
G02*
X98331250Y-57881250I0J-62500D01*
G01*
X98331250Y-58006250D01*
G75*
G02*
X98268750Y-58068750I-62500J0D01*
G01*
X97318750Y-58068750D01*
G75*
G02*
X97256250Y-58006250I0J62500D01*
G01*
G37*
G04 #@! TD.AperFunction*
G04 #@! TA.AperFunction,SMDPad,CuDef*
G36*
G01*
X97256250Y-58506250D02*
X97256250Y-58381250D01*
G75*
G02*
X97318750Y-58318750I62500J0D01*
G01*
X98268750Y-58318750D01*
G75*
G02*
X98331250Y-58381250I0J-62500D01*
G01*
X98331250Y-58506250D01*
G75*
G02*
X98268750Y-58568750I-62500J0D01*
G01*
X97318750Y-58568750D01*
G75*
G02*
X97256250Y-58506250I0J62500D01*
G01*
G37*
G04 #@! TD.AperFunction*
G04 #@! TA.AperFunction,SMDPad,CuDef*
G36*
G01*
X97256250Y-59006250D02*
X97256250Y-58881250D01*
G75*
G02*
X97318750Y-58818750I62500J0D01*
G01*
X98268750Y-58818750D01*
G75*
G02*
X98331250Y-58881250I0J-62500D01*
G01*
X98331250Y-59006250D01*
G75*
G02*
X98268750Y-59068750I-62500J0D01*
G01*
X97318750Y-59068750D01*
G75*
G02*
X97256250Y-59006250I0J62500D01*
G01*
G37*
G04 #@! TD.AperFunction*
G04 #@! TA.AperFunction,SMDPad,CuDef*
G36*
G01*
X97256250Y-59506250D02*
X97256250Y-59381250D01*
G75*
G02*
X97318750Y-59318750I62500J0D01*
G01*
X98268750Y-59318750D01*
G75*
G02*
X98331250Y-59381250I0J-62500D01*
G01*
X98331250Y-59506250D01*
G75*
G02*
X98268750Y-59568750I-62500J0D01*
G01*
X97318750Y-59568750D01*
G75*
G02*
X97256250Y-59506250I0J62500D01*
G01*
G37*
G04 #@! TD.AperFunction*
G04 #@! TA.AperFunction,SMDPad,CuDef*
G36*
G01*
X97256250Y-60006250D02*
X97256250Y-59881250D01*
G75*
G02*
X97318750Y-59818750I62500J0D01*
G01*
X98268750Y-59818750D01*
G75*
G02*
X98331250Y-59881250I0J-62500D01*
G01*
X98331250Y-60006250D01*
G75*
G02*
X98268750Y-60068750I-62500J0D01*
G01*
X97318750Y-60068750D01*
G75*
G02*
X97256250Y-60006250I0J62500D01*
G01*
G37*
G04 #@! TD.AperFunction*
G04 #@! TA.AperFunction,SMDPad,CuDef*
G36*
G01*
X97256250Y-60506250D02*
X97256250Y-60381250D01*
G75*
G02*
X97318750Y-60318750I62500J0D01*
G01*
X98268750Y-60318750D01*
G75*
G02*
X98331250Y-60381250I0J-62500D01*
G01*
X98331250Y-60506250D01*
G75*
G02*
X98268750Y-60568750I-62500J0D01*
G01*
X97318750Y-60568750D01*
G75*
G02*
X97256250Y-60506250I0J62500D01*
G01*
G37*
G04 #@! TD.AperFunction*
G04 #@! TA.AperFunction,SMDPad,CuDef*
G36*
G01*
X96831250Y-61756250D02*
X96831250Y-60806250D01*
G75*
G02*
X96893750Y-60743750I62500J0D01*
G01*
X97018750Y-60743750D01*
G75*
G02*
X97081250Y-60806250I0J-62500D01*
G01*
X97081250Y-61756250D01*
G75*
G02*
X97018750Y-61818750I-62500J0D01*
G01*
X96893750Y-61818750D01*
G75*
G02*
X96831250Y-61756250I0J62500D01*
G01*
G37*
G04 #@! TD.AperFunction*
G04 #@! TA.AperFunction,SMDPad,CuDef*
G36*
G01*
X96331250Y-61756250D02*
X96331250Y-60806250D01*
G75*
G02*
X96393750Y-60743750I62500J0D01*
G01*
X96518750Y-60743750D01*
G75*
G02*
X96581250Y-60806250I0J-62500D01*
G01*
X96581250Y-61756250D01*
G75*
G02*
X96518750Y-61818750I-62500J0D01*
G01*
X96393750Y-61818750D01*
G75*
G02*
X96331250Y-61756250I0J62500D01*
G01*
G37*
G04 #@! TD.AperFunction*
G04 #@! TA.AperFunction,SMDPad,CuDef*
G36*
G01*
X95831250Y-61756250D02*
X95831250Y-60806250D01*
G75*
G02*
X95893750Y-60743750I62500J0D01*
G01*
X96018750Y-60743750D01*
G75*
G02*
X96081250Y-60806250I0J-62500D01*
G01*
X96081250Y-61756250D01*
G75*
G02*
X96018750Y-61818750I-62500J0D01*
G01*
X95893750Y-61818750D01*
G75*
G02*
X95831250Y-61756250I0J62500D01*
G01*
G37*
G04 #@! TD.AperFunction*
G04 #@! TA.AperFunction,SMDPad,CuDef*
G36*
G01*
X95331250Y-61756250D02*
X95331250Y-60806250D01*
G75*
G02*
X95393750Y-60743750I62500J0D01*
G01*
X95518750Y-60743750D01*
G75*
G02*
X95581250Y-60806250I0J-62500D01*
G01*
X95581250Y-61756250D01*
G75*
G02*
X95518750Y-61818750I-62500J0D01*
G01*
X95393750Y-61818750D01*
G75*
G02*
X95331250Y-61756250I0J62500D01*
G01*
G37*
G04 #@! TD.AperFunction*
G04 #@! TA.AperFunction,SMDPad,CuDef*
G36*
G01*
X94831250Y-61756250D02*
X94831250Y-60806250D01*
G75*
G02*
X94893750Y-60743750I62500J0D01*
G01*
X95018750Y-60743750D01*
G75*
G02*
X95081250Y-60806250I0J-62500D01*
G01*
X95081250Y-61756250D01*
G75*
G02*
X95018750Y-61818750I-62500J0D01*
G01*
X94893750Y-61818750D01*
G75*
G02*
X94831250Y-61756250I0J62500D01*
G01*
G37*
G04 #@! TD.AperFunction*
G04 #@! TA.AperFunction,SMDPad,CuDef*
G36*
G01*
X94331250Y-61756250D02*
X94331250Y-60806250D01*
G75*
G02*
X94393750Y-60743750I62500J0D01*
G01*
X94518750Y-60743750D01*
G75*
G02*
X94581250Y-60806250I0J-62500D01*
G01*
X94581250Y-61756250D01*
G75*
G02*
X94518750Y-61818750I-62500J0D01*
G01*
X94393750Y-61818750D01*
G75*
G02*
X94331250Y-61756250I0J62500D01*
G01*
G37*
G04 #@! TD.AperFunction*
G04 #@! TA.AperFunction,SMDPad,CuDef*
G36*
G01*
X93831250Y-61756250D02*
X93831250Y-60806250D01*
G75*
G02*
X93893750Y-60743750I62500J0D01*
G01*
X94018750Y-60743750D01*
G75*
G02*
X94081250Y-60806250I0J-62500D01*
G01*
X94081250Y-61756250D01*
G75*
G02*
X94018750Y-61818750I-62500J0D01*
G01*
X93893750Y-61818750D01*
G75*
G02*
X93831250Y-61756250I0J62500D01*
G01*
G37*
G04 #@! TD.AperFunction*
G04 #@! TA.AperFunction,SMDPad,CuDef*
G36*
G01*
X93331250Y-61756250D02*
X93331250Y-60806250D01*
G75*
G02*
X93393750Y-60743750I62500J0D01*
G01*
X93518750Y-60743750D01*
G75*
G02*
X93581250Y-60806250I0J-62500D01*
G01*
X93581250Y-61756250D01*
G75*
G02*
X93518750Y-61818750I-62500J0D01*
G01*
X93393750Y-61818750D01*
G75*
G02*
X93331250Y-61756250I0J62500D01*
G01*
G37*
G04 #@! TD.AperFunction*
G04 #@! TA.AperFunction,SMDPad,CuDef*
G36*
G01*
X92831250Y-61756250D02*
X92831250Y-60806250D01*
G75*
G02*
X92893750Y-60743750I62500J0D01*
G01*
X93018750Y-60743750D01*
G75*
G02*
X93081250Y-60806250I0J-62500D01*
G01*
X93081250Y-61756250D01*
G75*
G02*
X93018750Y-61818750I-62500J0D01*
G01*
X92893750Y-61818750D01*
G75*
G02*
X92831250Y-61756250I0J62500D01*
G01*
G37*
G04 #@! TD.AperFunction*
G04 #@! TA.AperFunction,SMDPad,CuDef*
G36*
G01*
X92331250Y-61756250D02*
X92331250Y-60806250D01*
G75*
G02*
X92393750Y-60743750I62500J0D01*
G01*
X92518750Y-60743750D01*
G75*
G02*
X92581250Y-60806250I0J-62500D01*
G01*
X92581250Y-61756250D01*
G75*
G02*
X92518750Y-61818750I-62500J0D01*
G01*
X92393750Y-61818750D01*
G75*
G02*
X92331250Y-61756250I0J62500D01*
G01*
G37*
G04 #@! TD.AperFunction*
G04 #@! TA.AperFunction,SMDPad,CuDef*
G36*
G01*
X91831250Y-61756250D02*
X91831250Y-60806250D01*
G75*
G02*
X91893750Y-60743750I62500J0D01*
G01*
X92018750Y-60743750D01*
G75*
G02*
X92081250Y-60806250I0J-62500D01*
G01*
X92081250Y-61756250D01*
G75*
G02*
X92018750Y-61818750I-62500J0D01*
G01*
X91893750Y-61818750D01*
G75*
G02*
X91831250Y-61756250I0J62500D01*
G01*
G37*
G04 #@! TD.AperFunction*
G04 #@! TA.AperFunction,SMDPad,CuDef*
G36*
G01*
X90581250Y-60506250D02*
X90581250Y-60381250D01*
G75*
G02*
X90643750Y-60318750I62500J0D01*
G01*
X91593750Y-60318750D01*
G75*
G02*
X91656250Y-60381250I0J-62500D01*
G01*
X91656250Y-60506250D01*
G75*
G02*
X91593750Y-60568750I-62500J0D01*
G01*
X90643750Y-60568750D01*
G75*
G02*
X90581250Y-60506250I0J62500D01*
G01*
G37*
G04 #@! TD.AperFunction*
G04 #@! TA.AperFunction,SMDPad,CuDef*
G36*
G01*
X90581250Y-60006250D02*
X90581250Y-59881250D01*
G75*
G02*
X90643750Y-59818750I62500J0D01*
G01*
X91593750Y-59818750D01*
G75*
G02*
X91656250Y-59881250I0J-62500D01*
G01*
X91656250Y-60006250D01*
G75*
G02*
X91593750Y-60068750I-62500J0D01*
G01*
X90643750Y-60068750D01*
G75*
G02*
X90581250Y-60006250I0J62500D01*
G01*
G37*
G04 #@! TD.AperFunction*
G04 #@! TA.AperFunction,SMDPad,CuDef*
G36*
G01*
X90581250Y-59506250D02*
X90581250Y-59381250D01*
G75*
G02*
X90643750Y-59318750I62500J0D01*
G01*
X91593750Y-59318750D01*
G75*
G02*
X91656250Y-59381250I0J-62500D01*
G01*
X91656250Y-59506250D01*
G75*
G02*
X91593750Y-59568750I-62500J0D01*
G01*
X90643750Y-59568750D01*
G75*
G02*
X90581250Y-59506250I0J62500D01*
G01*
G37*
G04 #@! TD.AperFunction*
G04 #@! TA.AperFunction,SMDPad,CuDef*
G36*
G01*
X90581250Y-59006250D02*
X90581250Y-58881250D01*
G75*
G02*
X90643750Y-58818750I62500J0D01*
G01*
X91593750Y-58818750D01*
G75*
G02*
X91656250Y-58881250I0J-62500D01*
G01*
X91656250Y-59006250D01*
G75*
G02*
X91593750Y-59068750I-62500J0D01*
G01*
X90643750Y-59068750D01*
G75*
G02*
X90581250Y-59006250I0J62500D01*
G01*
G37*
G04 #@! TD.AperFunction*
G04 #@! TA.AperFunction,SMDPad,CuDef*
G36*
G01*
X90581250Y-58506250D02*
X90581250Y-58381250D01*
G75*
G02*
X90643750Y-58318750I62500J0D01*
G01*
X91593750Y-58318750D01*
G75*
G02*
X91656250Y-58381250I0J-62500D01*
G01*
X91656250Y-58506250D01*
G75*
G02*
X91593750Y-58568750I-62500J0D01*
G01*
X90643750Y-58568750D01*
G75*
G02*
X90581250Y-58506250I0J62500D01*
G01*
G37*
G04 #@! TD.AperFunction*
G04 #@! TA.AperFunction,SMDPad,CuDef*
G36*
G01*
X90581250Y-58006250D02*
X90581250Y-57881250D01*
G75*
G02*
X90643750Y-57818750I62500J0D01*
G01*
X91593750Y-57818750D01*
G75*
G02*
X91656250Y-57881250I0J-62500D01*
G01*
X91656250Y-58006250D01*
G75*
G02*
X91593750Y-58068750I-62500J0D01*
G01*
X90643750Y-58068750D01*
G75*
G02*
X90581250Y-58006250I0J62500D01*
G01*
G37*
G04 #@! TD.AperFunction*
G04 #@! TA.AperFunction,SMDPad,CuDef*
G36*
G01*
X90581250Y-57506250D02*
X90581250Y-57381250D01*
G75*
G02*
X90643750Y-57318750I62500J0D01*
G01*
X91593750Y-57318750D01*
G75*
G02*
X91656250Y-57381250I0J-62500D01*
G01*
X91656250Y-57506250D01*
G75*
G02*
X91593750Y-57568750I-62500J0D01*
G01*
X90643750Y-57568750D01*
G75*
G02*
X90581250Y-57506250I0J62500D01*
G01*
G37*
G04 #@! TD.AperFunction*
G04 #@! TA.AperFunction,SMDPad,CuDef*
G36*
G01*
X90581250Y-57006250D02*
X90581250Y-56881250D01*
G75*
G02*
X90643750Y-56818750I62500J0D01*
G01*
X91593750Y-56818750D01*
G75*
G02*
X91656250Y-56881250I0J-62500D01*
G01*
X91656250Y-57006250D01*
G75*
G02*
X91593750Y-57068750I-62500J0D01*
G01*
X90643750Y-57068750D01*
G75*
G02*
X90581250Y-57006250I0J62500D01*
G01*
G37*
G04 #@! TD.AperFunction*
G04 #@! TA.AperFunction,SMDPad,CuDef*
G36*
G01*
X90581250Y-56506250D02*
X90581250Y-56381250D01*
G75*
G02*
X90643750Y-56318750I62500J0D01*
G01*
X91593750Y-56318750D01*
G75*
G02*
X91656250Y-56381250I0J-62500D01*
G01*
X91656250Y-56506250D01*
G75*
G02*
X91593750Y-56568750I-62500J0D01*
G01*
X90643750Y-56568750D01*
G75*
G02*
X90581250Y-56506250I0J62500D01*
G01*
G37*
G04 #@! TD.AperFunction*
G04 #@! TA.AperFunction,SMDPad,CuDef*
G36*
G01*
X90581250Y-56006250D02*
X90581250Y-55881250D01*
G75*
G02*
X90643750Y-55818750I62500J0D01*
G01*
X91593750Y-55818750D01*
G75*
G02*
X91656250Y-55881250I0J-62500D01*
G01*
X91656250Y-56006250D01*
G75*
G02*
X91593750Y-56068750I-62500J0D01*
G01*
X90643750Y-56068750D01*
G75*
G02*
X90581250Y-56006250I0J62500D01*
G01*
G37*
G04 #@! TD.AperFunction*
G04 #@! TA.AperFunction,SMDPad,CuDef*
G36*
G01*
X90581250Y-55506250D02*
X90581250Y-55381250D01*
G75*
G02*
X90643750Y-55318750I62500J0D01*
G01*
X91593750Y-55318750D01*
G75*
G02*
X91656250Y-55381250I0J-62500D01*
G01*
X91656250Y-55506250D01*
G75*
G02*
X91593750Y-55568750I-62500J0D01*
G01*
X90643750Y-55568750D01*
G75*
G02*
X90581250Y-55506250I0J62500D01*
G01*
G37*
G04 #@! TD.AperFunction*
D11*
X90456250Y-52243750D03*
X91256250Y-52243750D03*
X92056250Y-52243750D03*
X92856250Y-52243750D03*
X93656250Y-52243750D03*
X94456250Y-52243750D03*
X95256250Y-52243750D03*
X96056250Y-52243750D03*
X96856250Y-52243750D03*
X97656250Y-52243750D03*
X98456250Y-52243750D03*
D12*
X100156250Y-53943750D03*
X100156250Y-54743750D03*
X100156250Y-55543750D03*
X100156250Y-56343750D03*
X100156250Y-57143750D03*
X100156250Y-57943750D03*
X100156250Y-58743750D03*
X100156250Y-59543750D03*
X100156250Y-60343750D03*
X100156250Y-61143750D03*
X100156250Y-61943750D03*
D11*
X98456250Y-63643750D03*
X97656250Y-63643750D03*
X96856250Y-63643750D03*
X96056250Y-63643750D03*
X95256250Y-63643750D03*
X94456250Y-63643750D03*
X93656250Y-63643750D03*
X92856250Y-63643750D03*
X92056250Y-63643750D03*
X91256250Y-63643750D03*
X90456250Y-63643750D03*
D12*
X88756250Y-61943750D03*
X88756250Y-61143750D03*
X88756250Y-60343750D03*
X88756250Y-59543750D03*
X88756250Y-58743750D03*
X88756250Y-57943750D03*
X88756250Y-57143750D03*
X88756250Y-56343750D03*
X88756250Y-55543750D03*
X88756250Y-54743750D03*
X88756250Y-53943750D03*
D13*
X90456250Y-52418750D03*
X99987500Y-61143750D03*
D14*
X94456250Y-57943750D03*
X92868750Y-57943750D03*
X92868750Y-59531250D03*
X94456250Y-59531250D03*
X96043750Y-59531250D03*
X96043750Y-57943750D03*
X96043750Y-56356250D03*
X94456250Y-56356250D03*
X92868750Y-56356250D03*
D13*
X91256250Y-52412500D03*
X97656250Y-52362500D03*
X99981250Y-61943750D03*
X92856250Y-63512500D03*
X92056250Y-52406250D03*
X92856250Y-52400000D03*
X93656250Y-52393750D03*
X94456250Y-52387500D03*
X95256250Y-52381250D03*
X96056250Y-52375000D03*
X96856250Y-52368750D03*
X98456250Y-52356250D03*
X92056250Y-63518750D03*
X100043750Y-53943750D03*
X100037500Y-54743750D03*
X100031250Y-55543750D03*
X100025000Y-56343750D03*
X100018750Y-57143750D03*
X100012500Y-57943750D03*
X100006250Y-58743750D03*
X100000000Y-59543750D03*
X99993750Y-60343750D03*
X98456250Y-63468750D03*
X97656250Y-63475000D03*
X96856250Y-63481250D03*
X96056250Y-63487500D03*
X95256250Y-63493750D03*
X94456250Y-63500000D03*
X93656250Y-63506250D03*
X91256250Y-63525000D03*
X90456250Y-63531250D03*
X88868750Y-61943750D03*
X88875000Y-61143750D03*
X88881250Y-60343750D03*
X88887500Y-59543750D03*
X88893750Y-58743750D03*
X88900000Y-57943750D03*
X88906250Y-57143750D03*
X88912500Y-56343750D03*
X88918750Y-55543750D03*
X88925000Y-54743750D03*
X88931250Y-53943750D03*
D15*
X90456250Y-53243750D02*
X91981250Y-54768750D01*
X90456250Y-52243750D02*
X90456250Y-52418750D01*
X99156250Y-61143750D02*
X99987500Y-61143750D01*
X98656260Y-60643760D02*
X99156250Y-61143750D01*
X98379272Y-59943750D02*
X98656260Y-60220738D01*
X98656260Y-60220738D02*
X98656260Y-60643760D01*
X97793750Y-59943750D02*
X98379272Y-59943750D01*
X90456250Y-52418750D02*
X90456250Y-53243750D01*
X99987500Y-61143750D02*
X100156250Y-61143750D01*
X99293750Y-61943750D02*
X99981250Y-61943750D01*
X97793750Y-60443750D02*
X99293750Y-61943750D01*
X93456250Y-61818750D02*
X93456250Y-61281250D01*
X93456250Y-62139592D02*
X93456250Y-61818750D01*
X92856250Y-62739592D02*
X93456250Y-62139592D01*
X92856250Y-63643750D02*
X92856250Y-63512500D01*
X96733238Y-53743740D02*
X96456250Y-54020728D01*
X97156260Y-53743740D02*
X96733238Y-53743740D01*
X96456250Y-54020728D02*
X96456250Y-54606250D01*
X97656250Y-52243750D02*
X97656250Y-52362500D01*
X97656250Y-53243750D02*
X97156260Y-53743740D01*
X92456250Y-54068750D02*
X92456250Y-54606250D01*
X92456250Y-54020728D02*
X92456250Y-54068750D01*
X92179262Y-53743740D02*
X92456250Y-54020728D01*
X91756240Y-53743740D02*
X92179262Y-53743740D01*
X91256250Y-53243750D02*
X91756240Y-53743740D01*
X91256250Y-52243750D02*
X91256250Y-52412500D01*
X91256250Y-52412500D02*
X91256250Y-53243750D01*
X97656250Y-52362500D02*
X97656250Y-53243750D01*
X99981250Y-61943750D02*
X100156250Y-61943750D01*
X92856250Y-63512500D02*
X92856250Y-62739592D01*
X92956250Y-53884318D02*
X92956250Y-54068750D01*
X92956250Y-54068750D02*
X92956250Y-54606250D01*
X92056250Y-52984318D02*
X92956250Y-53884318D01*
X92056250Y-52243750D02*
X92056250Y-52406250D01*
X92056250Y-52406250D02*
X92056250Y-52984318D01*
X93456250Y-53680160D02*
X93456250Y-54068750D01*
X93456250Y-54068750D02*
X93456250Y-54606250D01*
X92856250Y-53080160D02*
X93456250Y-53680160D01*
X92856250Y-52243750D02*
X92856250Y-52400000D01*
X92856250Y-52400000D02*
X92856250Y-53080160D01*
X93656250Y-53243750D02*
X93656250Y-52393750D01*
X93994748Y-53582248D02*
X93656250Y-53243750D01*
X93994748Y-54567752D02*
X93994748Y-53582248D01*
X93956250Y-54606250D02*
X93994748Y-54567752D01*
X93656250Y-52393750D02*
X93656250Y-52243750D01*
X94456250Y-52243750D02*
X94456250Y-52387500D01*
X94456250Y-52243750D02*
X94456250Y-52387500D01*
X94456250Y-52387500D02*
X94456250Y-54606250D01*
X94956250Y-54068750D02*
X94956250Y-54606250D01*
X94956250Y-53318751D02*
X95256250Y-53018751D01*
X95256250Y-53018751D02*
X95256250Y-52381250D01*
X94956250Y-54606250D02*
X94956250Y-53318751D01*
X95256250Y-52381250D02*
X95256250Y-52243750D01*
X95456250Y-54068750D02*
X95456250Y-54606250D01*
X96056250Y-53147908D02*
X95456250Y-53747908D01*
X95456250Y-53747908D02*
X95456250Y-54068750D01*
X96056250Y-52243750D02*
X96056250Y-52375000D01*
X96056250Y-52375000D02*
X96056250Y-53147908D01*
X95956250Y-54020728D02*
X95956250Y-54606250D01*
X95956250Y-54068750D02*
X95956250Y-54606250D01*
X96856250Y-52984318D02*
X95956250Y-53884318D01*
X95956250Y-53884318D02*
X95956250Y-54068750D01*
X96856250Y-52243750D02*
X96856250Y-52368750D01*
X96856250Y-52368750D02*
X96856250Y-52984318D01*
X97081250Y-54606250D02*
X96956250Y-54606250D01*
X97093750Y-54606250D02*
X97081250Y-54606250D01*
X98456250Y-53243750D02*
X97093750Y-54606250D01*
X98456250Y-52243750D02*
X98456250Y-52356250D01*
X92956250Y-61818750D02*
X92956250Y-61281250D01*
X92956250Y-62003182D02*
X92956250Y-61818750D01*
X92056250Y-62903182D02*
X92956250Y-62003182D01*
X92056250Y-63643750D02*
X92056250Y-63518750D01*
X98456250Y-52356250D02*
X98456250Y-53243750D01*
X92056250Y-63518750D02*
X92056250Y-62903182D01*
X99293750Y-53943750D02*
X100043750Y-53943750D01*
X97793750Y-55443750D02*
X99293750Y-53943750D01*
X100043750Y-53943750D02*
X100156250Y-53943750D01*
X99156250Y-54743750D02*
X100037500Y-54743750D01*
X98656260Y-55243740D02*
X99156250Y-54743750D01*
X98656260Y-55666762D02*
X98656260Y-55243740D01*
X98379272Y-55943750D02*
X98656260Y-55666762D01*
X97793750Y-55943750D02*
X98379272Y-55943750D01*
X100037500Y-54743750D02*
X100156250Y-54743750D01*
X99415682Y-55543750D02*
X100031250Y-55543750D01*
X98515682Y-56443750D02*
X99415682Y-55543750D01*
X97793750Y-56443750D02*
X98515682Y-56443750D01*
X100031250Y-55543750D02*
X100156250Y-55543750D01*
X99346248Y-56343750D02*
X100025000Y-56343750D01*
X98746248Y-56943750D02*
X99346248Y-56343750D01*
X97793750Y-56943750D02*
X98746248Y-56943750D01*
X100025000Y-56343750D02*
X100156250Y-56343750D01*
X99081249Y-57443750D02*
X99381249Y-57143750D01*
X99381249Y-57143750D02*
X100018750Y-57143750D01*
X97793750Y-57443750D02*
X99081249Y-57443750D01*
X100018750Y-57143750D02*
X100156250Y-57143750D01*
X100156250Y-57943750D02*
X100012500Y-57943750D01*
X100012500Y-57943750D02*
X97793750Y-57943750D01*
X99081249Y-58443750D02*
X99381249Y-58743750D01*
X99381249Y-58743750D02*
X100006250Y-58743750D01*
X97793750Y-58443750D02*
X99081249Y-58443750D01*
X100006250Y-58743750D02*
X100156250Y-58743750D01*
X99346248Y-59543750D02*
X100000000Y-59543750D01*
X98746248Y-58943750D02*
X99346248Y-59543750D01*
X97793750Y-58943750D02*
X98746248Y-58943750D01*
X100000000Y-59543750D02*
X100156250Y-59543750D01*
X100137500Y-60325000D02*
X100156250Y-60343750D01*
X98515682Y-59443750D02*
X98331250Y-59443750D01*
X99415682Y-60343750D02*
X98515682Y-59443750D01*
X98331250Y-59443750D02*
X97793750Y-59443750D01*
X100156250Y-60343750D02*
X99993750Y-60343750D01*
X99993750Y-60343750D02*
X99415682Y-60343750D01*
X97081250Y-61281250D02*
X96956250Y-61281250D01*
X97093750Y-61281250D02*
X97081250Y-61281250D01*
X98456250Y-62643750D02*
X97093750Y-61281250D01*
X98456250Y-63643750D02*
X98456250Y-63468750D01*
X98456250Y-63468750D02*
X98456250Y-62643750D01*
X96456250Y-61818750D02*
X96456250Y-61281250D01*
X96733238Y-62143760D02*
X96456250Y-61866772D01*
X97156260Y-62143760D02*
X96733238Y-62143760D01*
X96456250Y-61866772D02*
X96456250Y-61818750D01*
X97656250Y-62643750D02*
X97156260Y-62143760D01*
X97656250Y-63643750D02*
X97656250Y-63475000D01*
X97656250Y-63475000D02*
X97656250Y-62643750D01*
X96856250Y-62903182D02*
X96856250Y-63481250D01*
X95956250Y-62003182D02*
X96856250Y-62903182D01*
X95956250Y-61281250D02*
X95956250Y-62003182D01*
X96856250Y-63481250D02*
X96856250Y-63643750D01*
X96056250Y-62739592D02*
X95456250Y-62139592D01*
X95456250Y-61818750D02*
X95456250Y-61281250D01*
X95456250Y-62139592D02*
X95456250Y-61818750D01*
X96056250Y-63643750D02*
X96056250Y-63487500D01*
X96056250Y-63487500D02*
X96056250Y-62739592D01*
X94956250Y-61818750D02*
X94956250Y-61281250D01*
X94956250Y-62276002D02*
X94956250Y-61818750D01*
X95256250Y-62576002D02*
X94956250Y-62276002D01*
X95256250Y-63643750D02*
X95256250Y-63493750D01*
X95256250Y-63493750D02*
X95256250Y-62576002D01*
X94456250Y-61281250D02*
X94456250Y-63500000D01*
X94456250Y-63500000D02*
X94456250Y-63643750D01*
X93956250Y-62568749D02*
X93656250Y-62868749D01*
X93656250Y-62868749D02*
X93656250Y-63506250D01*
X93956250Y-61281250D02*
X93956250Y-62568749D01*
X93656250Y-63506250D02*
X93656250Y-63643750D01*
X91256250Y-62833748D02*
X91946238Y-62143760D01*
X91256250Y-63643750D02*
X91256250Y-63525000D01*
X92456250Y-61818750D02*
X92456250Y-61281250D01*
X92456250Y-61866772D02*
X92456250Y-61818750D01*
X92179262Y-62143760D02*
X92456250Y-61866772D01*
X91946238Y-62143760D02*
X92179262Y-62143760D01*
X91256250Y-63525000D02*
X91256250Y-62833748D01*
X90456250Y-62781250D02*
X90456250Y-63531250D01*
X91956250Y-61281250D02*
X90456250Y-62781250D01*
X90456250Y-63531250D02*
X90456250Y-63643750D01*
X91118750Y-60568750D02*
X91118750Y-60443750D01*
X91118750Y-60581250D02*
X91118750Y-60568750D01*
X89756250Y-61943750D02*
X91118750Y-60581250D01*
X88756250Y-61943750D02*
X88868750Y-61943750D01*
X88868750Y-61943750D02*
X89756250Y-61943750D01*
X90581250Y-59943750D02*
X91118750Y-59943750D01*
X90533228Y-59943750D02*
X90581250Y-59943750D01*
X90256240Y-60220738D02*
X90533228Y-59943750D01*
X90256240Y-60643760D02*
X90256240Y-60220738D01*
X89756250Y-61143750D02*
X90256240Y-60643760D01*
X88756250Y-61143750D02*
X88875000Y-61143750D01*
X88875000Y-61143750D02*
X89756250Y-61143750D01*
X90396818Y-59443750D02*
X90581250Y-59443750D01*
X89496818Y-60343750D02*
X90396818Y-59443750D01*
X90581250Y-59443750D02*
X91118750Y-59443750D01*
X88756250Y-60343750D02*
X88881250Y-60343750D01*
X88881250Y-60343750D02*
X89496818Y-60343750D01*
X90581250Y-58943750D02*
X91118750Y-58943750D01*
X90260408Y-58943750D02*
X90581250Y-58943750D01*
X89660408Y-59543750D02*
X90260408Y-58943750D01*
X88756250Y-59543750D02*
X88887500Y-59543750D01*
X88887500Y-59543750D02*
X89660408Y-59543750D01*
X88756250Y-58743750D02*
X88893750Y-58743750D01*
X90123998Y-58443750D02*
X91118750Y-58443750D01*
X89823998Y-58743750D02*
X90123998Y-58443750D01*
X88893750Y-58743750D02*
X89823998Y-58743750D01*
X88756250Y-57943750D02*
X88900000Y-57943750D01*
X91281250Y-57943750D02*
X91118750Y-57943750D01*
X88900000Y-57943750D02*
X91281250Y-57943750D01*
X90581250Y-57443750D02*
X91118750Y-57443750D01*
X90029842Y-57443750D02*
X90581250Y-57443750D01*
X89729842Y-57143750D02*
X90029842Y-57443750D01*
X88756250Y-57143750D02*
X88906250Y-57143750D01*
X88906250Y-57143750D02*
X89729842Y-57143750D01*
X90581250Y-56943750D02*
X91118750Y-56943750D01*
X89566252Y-56343750D02*
X88912500Y-56343750D01*
X90166252Y-56943750D02*
X89566252Y-56343750D01*
X91118750Y-56943750D02*
X90166252Y-56943750D01*
X88912500Y-56343750D02*
X88756250Y-56343750D01*
X89496818Y-55543750D02*
X88918750Y-55543750D01*
X90396818Y-56443750D02*
X89496818Y-55543750D01*
X91118750Y-56443750D02*
X90396818Y-56443750D01*
X88918750Y-55543750D02*
X88756250Y-55543750D01*
X90256240Y-55243740D02*
X89756250Y-54743750D01*
X90256240Y-55666762D02*
X90256240Y-55243740D01*
X90533228Y-55943750D02*
X90256240Y-55666762D01*
X89756250Y-54743750D02*
X88925000Y-54743750D01*
X91118750Y-55943750D02*
X90533228Y-55943750D01*
X88925000Y-54743750D02*
X88756250Y-54743750D01*
X91118750Y-55318750D02*
X91118750Y-55443750D01*
X91118750Y-55306250D02*
X91118750Y-55318750D01*
X89756250Y-53943750D02*
X91118750Y-55306250D01*
X88756250Y-53943750D02*
X88931250Y-53943750D01*
X88931250Y-53943750D02*
X89756250Y-53943750D01*
M02*
